<svg xmlns="http://www.w3.org/2000/svg" version="1.1" xmlns:xlink="http://www.w3.org/1999/xlink" xmlns:svgjs="http://svgjs.dev/svgjs" width="1000" height="414" viewBox="0 0 1000 414"><g transform="matrix(1,0,0,1,-0.6060606060606233,0.6263145387867723)"><svg viewBox="0 0 396 164" data-background-color="#ffffff" preserveAspectRatio="xMidYMid meet" height="414" width="1000" xmlns="http://www.w3.org/2000/svg" xmlns:xlink="http://www.w3.org/1999/xlink"><g id="tight-bounds" transform="matrix(1,0,0,1,0.2400000000000091,-0.2481052762343694)"><svg viewBox="0 0 395.52 164.49621055246874" height="164.49621055246874" width="395.52"><g><svg viewBox="0 0 713.2507940818285 296.64" height="164.49621055246874" width="395.52"><g><rect width="22.292751110399998" height="296.64" x="413.2665586285714" y="0" fill="#d2d1d1" opacity="1" stroke-width="0" stroke="transparent" fill-opacity="1" class="rect-i$-0" data-fill-palette-color="primary" rx="1%" id="i$-0" data-palette-color="#d2d1d1"></rect></g><g transform="matrix(1,0,0,1,0,24.72)"><svg viewBox="0 0 354.9085714285714 247.2" height="247.2" width="354.9085714285714"><g id="textblocktransform"><svg viewBox="0 0 354.9085714285714 247.2" height="247.2" width="354.9085714285714" id="textblock"><g><svg viewBox="0 0 354.9085714285714 247.2" height="247.2" width="354.9085714285714"><g transform="matrix(1,0,0,1,0,0)"><svg width="354.9085714285714" viewBox="2.05 -35 50.25 35" height="247.2" data-palette-color="#d2d1d1"><path d="M2.05 0L2.05-35 10.2-35Q14.45-35 16.4-33.02 18.35-31.05 18.35-26.95L18.35-26.95 18.35-24.8Q18.35-19.35 14.75-17.9L14.75-17.9 14.75-17.8Q16.75-17.2 17.57-15.35 18.4-13.5 18.4-10.4L18.4-10.4 18.4-4.25Q18.4-2.75 18.5-1.83 18.6-0.9 19 0L19 0 13.4 0Q13.1-0.85 13-1.6 12.9-2.35 12.9-4.3L12.9-4.3 12.9-10.7Q12.9-13.1 12.13-14.05 11.35-15 9.45-15L9.45-15 7.55-15 7.55 0 2.05 0ZM7.55-20L9.55-20Q11.2-20 12.03-20.85 12.85-21.7 12.85-23.7L12.85-23.7 12.85-26.4Q12.85-28.3 12.18-29.15 11.5-30 10.05-30L10.05-30 7.55-30 7.55-20ZM21.4-15L21.4-20 32.4-20 32.4-15 21.4-15ZM35.7 0L35.7-35 44.1-35Q48.2-35 50.25-32.8 52.3-30.6 52.3-26.35L52.3-26.35 52.3-8.65Q52.3-4.4 50.25-2.2 48.2 0 44.1 0L44.1 0 35.7 0ZM41.2-5L44-5Q45.35-5 46.07-5.8 46.8-6.6 46.8-8.4L46.8-8.4 46.8-26.6Q46.8-28.4 46.07-29.2 45.35-30 44-30L44-30 41.2-30 41.2-5Z" opacity="1" transform="matrix(1,0,0,1,0,0)" fill="#d2d1d1" class="undefined-text-0" data-fill-palette-color="primary" id="text-0"></path></svg></g></svg></g></svg></g></svg></g><g transform="matrix(1,0,0,1,493.9172969389714,38.65325142857142)"><svg viewBox="0 0 219.33349714285714 219.33349714285714" height="219.33349714285714" width="219.33349714285714"><g><svg xmlns="http://www.w3.org/2000/svg" xmlns:xlink="http://www.w3.org/1999/xlink" version="1.1" x="0" y="0" viewBox="0 0 60 60" enable-background="new 0 0 60 60" xml:space="preserve" height="219.33349714285714" width="219.33349714285714" class="icon-icon-0" data-fill-palette-color="accent" id="icon-0"><g fill="#ff4c38" data-fill-palette-color="accent"><path fill="#ff4c38" d="M37.54 52.33c0.14 0.4 0.52 0.67 0.94 0.67h11.39c0.44 0 0.82-0.28 0.95-0.7l3.12-9.89c0.12-0.37 0.01-0.78-0.29-1.04l-9-8.11c-0.38-0.34-0.95-0.34-1.33 0l-9 8.03c-0.3 0.27-0.41 0.69-0.28 1.08L37.54 52.33zM44 35.34l7.86 7.08L49.15 51H39.2l-3.03-8.67L44 35.34z" data-fill-palette-color="accent"></path><path fill="#ff4c38" d="M59 0H1C0.45 0 0 0.45 0 1v58c0 0.55 0.45 1 1 1h58c0.55 0 1-0.45 1-1V1C60 0.45 59.55 0 59 0zM58 58H2V2h56V58z" data-fill-palette-color="accent"></path><path fill="#ff4c38" d="M7 26h18c0.55 0 1-0.45 1-1V7c0-0.55-0.45-1-1-1H7C6.45 6 6 6.45 6 7v18C6 25.55 6.45 26 7 26zM8 8h16v16H8V8z" data-fill-palette-color="accent"></path><path fill="#ff4c38" d="M35 26h18c0.01 0 0.01 0 0.02 0 0.55 0 1-0.45 1-1 0-0.23-0.08-0.44-0.21-0.61L44.89 6.55c-0.34-0.68-1.45-0.68-1.79 0l-9 18c-0.16 0.31-0.14 0.68 0.04 0.97C34.33 25.82 34.65 26 35 26zM44 9.24L51.38 24H36.62L44 9.24z" data-fill-palette-color="accent"></path><path fill="#ff4c38" d="M16 54c5.51 0 10-4.49 10-10s-4.49-10-10-10S6 38.49 6 44 10.49 54 16 54zM16 36c4.41 0 8 3.59 8 8s-3.59 8-8 8-8-3.59-8-8S11.59 36 16 36z" data-fill-palette-color="accent"></path></g></svg></g></svg></g></svg></g><defs></defs></svg><rect width="395.52" height="164.49621055246874" fill="none" stroke="none" visibility="hidden"></rect></g></svg></g></svg>