<svg xmlns="http://www.w3.org/2000/svg" version="1.1" xmlns:xlink="http://www.w3.org/1999/xlink" xmlns:svgjs="http://svgjs.dev/svgjs" width="2000" height="1247" viewBox="0 0 2000 1247"><g transform="matrix(1,0,0,1,-1.2121212121212466,0.504858299595071)"><svg viewBox="0 0 396 247" data-background-color="#1b4571" preserveAspectRatio="xMidYMid meet" height="1247" width="2000" xmlns="http://www.w3.org/2000/svg" xmlns:xlink="http://www.w3.org/1999/xlink"><g id="tight-bounds" transform="matrix(1,0,0,1,0.2400000000000091,-0.09999999999999432)"><svg viewBox="0 0 395.52 247.2" height="247.2" width="395.52"><g><svg></svg></g><g><svg viewBox="0 0 395.52 247.2" height="247.2" width="395.52"><g transform="matrix(1,0,0,1,39.55199999999999,47.79784272849747)"><svg viewBox="0 0 316.416 151.60431454300505" height="151.60431454300505" width="316.416"><g><svg viewBox="0 0 316.416 151.60431454300505" height="151.60431454300505" width="316.416"><g><svg viewBox="0 0 316.416 151.60431454300505" height="151.60431454300505" width="316.416"><g><svg viewBox="0 0 316.416 151.60431454300505" height="151.60431454300505" width="316.416"><g id="textblocktransform"><svg viewBox="0 0 316.416 151.60431454300505" height="151.60431454300505" width="316.416" id="textblock"><g><svg viewBox="0 0 316.416 151.60431454300505" height="151.60431454300505" width="316.416"><g transform="matrix(1,0,0,1,0,0)"><svg width="316.416" viewBox="-3.2199999999999998 -36.15 83.63 40.59" height="151.60431454300505" data-palette-color="#ffffff"><path d="M14.43-20.85L14.43-17.36Q14.53-17.29 14.99-17.29 15.45-17.29 15.7-17.65 15.94-18.02 15.94-18.85L15.94-18.85 15.94-19.73Q15.94-20.61 15.73-20.98 15.53-21.36 15.05-21.36 14.58-21.36 14.4-21.26L14.4-21.26Q14.43-21.14 14.43-20.85L14.43-20.85ZM27.03-11.79L27.03-11.79 31.25-7.47Q30.81-3.66 28.85-1.61 26.88 0.44 23.41 0.44L23.41 0.44Q20.8 0.44 18.87-0.81L18.87-0.81Q16.41-2.37 15.19-5.79L15.19-5.79 14.31-8.18Q13.28-8.2 11.72-8.45L11.72-8.45Q11.52-8.25 11.52-7.91L11.52-7.91Q11.52-7.25 13.5-7.13L13.5-7.13 14.89-3.61 14.89-1.54Q12.08 0.44 7.69 0.44L7.69 0.44Q4.54 0.44 2.66-0.85 0.78-2.15 0.78-4.61L0.78-4.61 0.78-27.81Q0.78-28.88 2.76-29.9 4.74-30.91 7.93-31.53 11.13-32.15 14.33-32.15L14.33-32.15Q21.66-32.15 25.78-29.15L25.78-29.15Q30.13-26 30.13-20.29L30.13-20.29Q30.13-17.02 28.28-14.69 26.44-12.35 23.63-11.45L23.63-11.45Q23.63-10.67 24.57-10.67 25.51-10.67 27.03-11.79ZM33.81-11.79L33.81-11.79Q35.89-13.87 38.77-13.87 41.65-13.87 43.77-11.79L43.77-11.79Q45.85-9.67 45.85-6.77 45.85-3.88 43.77-1.81L43.77-1.81Q41.67 0.24 38.77 0.24 35.86 0.24 33.8-1.82 31.74-3.88 31.74-6.77 31.74-9.67 33.81-11.79ZM61.64-14.72L61.64-16.85Q61.64-19.29 61.42-20.2 61.2-21.12 60.62-21.12L60.62-21.12Q60.25-21.12 59.96-20.87L59.96-20.87Q60-20.43 60.1-19.7 60.2-18.97 60.2-16.58L60.2-16.58 60.2-14.99Q60.2-13.33 60.13-12.57 60.05-11.82 60-11.28L60-11.28Q59.98-10.99 59.96-10.69L59.96-10.69Q60.25-10.45 60.62-10.45L60.62-10.45Q61.2-10.45 61.42-11.36 61.64-12.28 61.64-14.72L61.64-14.72ZM58.71 0.02L52.53 0.02Q49.82 0.02 48.35-1.42 46.87-2.86 46.87-5.76L46.87-5.76 46.87-27.73Q46.87-29.59 50.59-30.87 54.32-32.15 58.91-32.15L58.91-32.15Q66.99-32.15 71.53-28.25L71.53-28.25Q76.41-24.05 76.41-15.72L76.41-15.72Q76.41-8.23 71.69-4.1 66.96 0.02 58.71 0.02L58.71 0.02Z" opacity="1" transform="matrix(1,0,0,1,0,0)" fill="#ffffff" class="undefined-text-0" data-fill-palette-color="primary" id="text-0"></path></svg></g></svg></g></svg></g></svg></g><g></g></svg></g></svg></g></svg></g><g mask="url(#f2ee4c5f-a0bd-46f6-805c-5b3084db3e69)"><g transform="matrix(3.0752158131153653, 0, 0, 3.0752158131153653, 86.45938549441571, 1)"><svg xmlns="http://www.w3.org/2000/svg" xmlns:xlink="http://www.w3.org/1999/xlink" version="1.1" x="0" y="0" viewBox="14.16277465707545 9.465758600012308 72.38556333568702 79.7342413999877" style="enable-background:new 0 0 100 100;" xml:space="preserve" height="79.7342413999877" width="72.38556333568702" class="icon-none" data-fill-palette-color="accent" id="none"><path d="M76.1 89.2c-0.5 0-1 0-1.6-0.1l-51.4-7.6c-3.9-0.6-7-3.1-8.3-6.8-1.3-3.7-0.6-7.6 2-10.6L62.2 13c2.8-3.2 7.1-4.3 11.1-3 4 1.3 6.8 4.7 7.2 8.9l6 58.7c0.3 3.2-0.8 6.4-3.2 8.7C81.3 88.2 78.8 89.2 76.1 89.2zM70 11.5c-2.4 0-4.7 1-6.3 2.9L18.3 65.4c-2.1 2.4-2.7 5.6-1.6 8.6s3.6 5 6.7 5.5l51.4 7.6c2.6 0.4 5.2-0.4 7.1-2.3 1.9-1.8 2.9-4.4 2.6-7l-6-58.7c-0.3-3.4-2.6-6.2-5.8-7.2C71.8 11.6 70.9 11.5 70 11.5z" fill="#bf2051" data-fill-palette-color="accent"></path></svg></g></g><mask id="f2ee4c5f-a0bd-46f6-805c-5b3084db3e69"><rect width="640" height="400" fill="white"></rect><g transform="matrix(1,0,0,1,39.55199999999999,47.79784272849747)"><svg viewBox="0 0 316.416 151.60431454300505" height="151.60431454300505" width="316.416"><g><svg viewBox="0 0 316.416 151.60431454300505" height="151.60431454300505" width="316.416"><g><svg viewBox="0 0 316.416 151.60431454300505" height="151.60431454300505" width="316.416"><g><svg viewBox="0 0 316.416 151.60431454300505" height="151.60431454300505" width="316.416"><g id="SvgjsG1052"><svg viewBox="0 0 316.416 151.60431454300505" height="151.60431454300505" width="316.416" id="SvgjsSvg1051"><g><svg viewBox="0 0 316.416 151.60431454300505" height="151.60431454300505" width="316.416"><g transform="matrix(1,0,0,1,0,0)"><svg width="316.416" viewBox="-3.2199999999999998 -36.15 83.63 40.59" height="151.60431454300505" data-palette-color="#ffffff"><path d="M14.43-20.85L14.43-17.36Q14.53-17.29 14.99-17.29 15.45-17.29 15.7-17.65 15.94-18.02 15.94-18.85L15.94-18.85 15.94-19.73Q15.94-20.61 15.73-20.98 15.53-21.36 15.05-21.36 14.58-21.36 14.4-21.26L14.4-21.26Q14.43-21.14 14.43-20.85L14.43-20.85ZM27.03-11.79L27.03-11.79 31.25-7.47Q30.81-3.66 28.85-1.61 26.88 0.44 23.41 0.44L23.41 0.44Q20.8 0.44 18.87-0.81L18.87-0.81Q16.41-2.37 15.19-5.79L15.19-5.79 14.31-8.18Q13.28-8.2 11.72-8.45L11.72-8.45Q11.52-8.25 11.52-7.91L11.52-7.91Q11.52-7.25 13.5-7.13L13.5-7.13 14.89-3.61 14.89-1.54Q12.08 0.44 7.69 0.44L7.69 0.44Q4.54 0.44 2.66-0.85 0.78-2.15 0.78-4.61L0.78-4.61 0.78-27.81Q0.78-28.88 2.76-29.9 4.74-30.91 7.93-31.53 11.13-32.15 14.33-32.15L14.33-32.15Q21.66-32.15 25.78-29.15L25.78-29.15Q30.13-26 30.13-20.29L30.13-20.29Q30.13-17.02 28.28-14.69 26.44-12.35 23.63-11.45L23.63-11.45Q23.63-10.67 24.57-10.67 25.51-10.67 27.03-11.79ZM33.81-11.79L33.81-11.79Q35.89-13.87 38.77-13.87 41.65-13.87 43.77-11.79L43.77-11.79Q45.85-9.67 45.85-6.77 45.85-3.88 43.77-1.81L43.77-1.81Q41.67 0.24 38.77 0.24 35.86 0.24 33.8-1.82 31.74-3.88 31.74-6.77 31.74-9.67 33.81-11.79ZM61.64-14.72L61.64-16.85Q61.64-19.29 61.42-20.2 61.2-21.12 60.62-21.12L60.62-21.12Q60.25-21.12 59.96-20.87L59.96-20.87Q60-20.43 60.1-19.7 60.2-18.97 60.2-16.58L60.2-16.58 60.2-14.99Q60.2-13.33 60.13-12.57 60.05-11.82 60-11.28L60-11.28Q59.98-10.99 59.96-10.69L59.96-10.69Q60.25-10.45 60.62-10.45L60.62-10.45Q61.2-10.45 61.42-11.36 61.64-12.28 61.64-14.72L61.64-14.72ZM58.71 0.02L52.53 0.02Q49.82 0.02 48.35-1.42 46.87-2.86 46.87-5.76L46.87-5.76 46.87-27.73Q46.87-29.59 50.59-30.87 54.32-32.15 58.91-32.15L58.91-32.15Q66.99-32.15 71.53-28.25L71.53-28.25Q76.41-24.05 76.41-15.72L76.41-15.72Q76.41-8.23 71.69-4.1 66.96 0.02 58.71 0.02L58.71 0.02Z" opacity="1" transform="matrix(1,0,0,1,0,0)" fill="#ffffff" class="undefined-text-0" data-fill-palette-color="primary" id="SvgjsPath1050" stroke-width="7" stroke="black" stroke-linejoin="round"></path></svg></g></svg></g></svg></g></svg></g><g></g></svg></g></svg></g></svg></g></mask></svg></g><defs></defs></svg><rect width="395.52" height="247.2" fill="none" stroke="none" visibility="hidden"></rect></g></svg></g></svg>